<svg width="20" height="20" viewBox="0 0 20 20" fill="none" xmlns="http://www.w3.org/2000/svg">
<g id="&#240;&#159;&#166;&#134; icon &#34;lock key&#34;">
<path id="Vector" d="M12.6667 10H13.4C13.7314 10 14 10.2686 14 10.6V14.4C14 14.7314 13.7314 15 13.4 15H6.6C6.26863 15 6 14.7314 6 14.4V10.6C6 10.2686 6.26863 10 6.6 10H7.33333M12.6667 10V7.5C12.6667 6.66667 12.1333 5 10 5C7.86667 5 7.33333 6.66667 7.33333 7.5V10M12.6667 10H7.33333" stroke="white" stroke-width="2" stroke-linecap="round" stroke-linejoin="round"/>
<path id="Vector_2" d="M1 17V3C1 1.89543 1.89543 1 3 1H17C18.1046 1 19 1.89543 19 3V17C19 18.1046 18.1046 19 17 19H3C1.89543 19 1 18.1046 1 17Z" stroke="white" stroke-width="2"/>
</g>
</svg>
