<svg width="44" height="45" viewBox="0 0 44 45" fill="none" xmlns="http://www.w3.org/2000/svg">
<g id="usuario">
<g id="&#240;&#159;&#166;&#134; icon &#34;profile circled&#34;">
<path id="Vector" d="M22 1C10.402 1 1 10.6024 1 22.4476C1 34.2927 10.402 43.8952 22 43.8952C33.5979 43.8952 43 34.2927 43 22.4476C43 10.6024 33.5979 1 22 1Z" stroke="white" stroke-width="2" stroke-linecap="round" stroke-linejoin="round"/>
<path id="Vector_2" d="M5.76953 36.0579C5.76953 36.0579 10.4505 29.9546 22.0004 29.9546C33.5504 29.9546 38.2315 36.0579 38.2315 36.0579" stroke="white" stroke-width="2" stroke-linecap="round" stroke-linejoin="round"/>
<path id="Vector_3" d="M21.9992 22.4477C25.4787 22.4477 28.2992 19.567 28.2992 16.0134C28.2992 12.4598 25.4787 9.5791 21.9992 9.5791C18.5197 9.5791 15.6992 12.4598 15.6992 16.0134C15.6992 19.567 18.5197 22.4477 21.9992 22.4477Z" stroke="white" stroke-width="2" stroke-linecap="round" stroke-linejoin="round"/>
</g>
</g>
</svg>
